<svg width="20" height="20" viewBox="0 0 20 20" fill="none" xmlns="http://www.w3.org/2000/svg">
<path fill-rule="evenodd" clip-rule="evenodd" d="M8.02261 0H11.9773L12.3718 2.88976C12.7072 3.00186 13.0341 3.13774 13.3502 3.29634L15.6736 1.53019L18.4667 4.32723L16.7012 6.64982C16.8598 6.96585 16.9956 7.29278 17.1077 7.62813L20 8.02261V11.978L17.1101 12.3698C16.998 12.705 16.8622 13.0318 16.7037 13.3477L18.4695 15.6707L15.6732 18.467L13.3502 16.7012C13.0342 16.8598 12.7072 16.9956 12.3719 17.1077L11.9774 20H8.02203L7.63018 17.1101C7.29499 16.998 6.9682 16.8622 6.65232 16.7037L4.32932 18.4695L1.533 15.6732L3.29884 13.3502C3.14025 13.0342 3.00438 12.7072 2.89228 12.3719L0 11.9774V8.0227L2.88976 7.6282C3.00186 7.29282 3.13774 6.96587 3.29634 6.64982L1.5305 4.32682L4.3272 1.53013L6.65021 3.29865C6.96612 3.14013 7.29292 3.00433 7.62813 2.89228L8.02261 0ZM9.47739 1.66667L9.13033 4.21128L8.5834 4.34834C8.02829 4.48745 7.49696 4.70832 7.00683 5.00373L6.52215 5.29584L4.47614 3.73821L3.73783 4.47652L5.29311 6.52253L5.00123 7.00683C4.70582 7.49696 4.48494 8.02829 4.34584 8.5834L4.2088 9.13025L1.66667 9.4773V10.5226L4.21128 10.8697L4.34834 11.4166C4.48745 11.9717 4.70832 12.503 5.00373 12.9932L5.29561 13.4775L3.74033 15.5235L4.47902 16.2622L6.52503 14.7069L7.00933 14.9988C7.49946 15.2942 8.03079 15.5151 8.5859 15.6542L9.13329 15.7913L9.47796 18.3333H10.5226L10.8697 15.7887L11.4166 15.6517C11.9717 15.5126 12.503 15.2917 12.9932 14.9963L13.4775 14.7044L15.5235 16.2597L16.2622 15.521L14.7069 13.475L14.9988 12.9907C15.2942 12.5005 15.5151 11.9692 15.6542 11.4141L15.7913 10.8667L18.3333 10.522V9.47739L15.7887 9.13033L15.6517 8.5834C15.5126 8.0283 15.2917 7.49696 14.9963 7.00683L14.7044 6.52253L16.26 4.4761L15.5231 3.73814L13.4775 5.29311L12.9932 5.00123C12.503 4.70582 11.9717 4.48494 11.4166 4.34584L10.8697 4.2088L10.5227 1.66667H9.47739Z" fill="#949494"/>
<path fill-rule="evenodd" clip-rule="evenodd" d="M9.99984 8.33366C9.07936 8.33366 8.33317 9.07985 8.33317 10.0003C8.33317 10.9208 9.07936 11.667 9.99984 11.667C10.9203 11.667 11.6665 10.9208 11.6665 10.0003C11.6665 9.07985 10.9203 8.33366 9.99984 8.33366ZM6.6665 10.0003C6.6665 8.15938 8.15889 6.66699 9.99984 6.66699C11.8408 6.66699 13.3332 8.15938 13.3332 10.0003C13.3332 11.8413 11.8408 13.3337 9.99984 13.3337C8.15889 13.3337 6.6665 11.8413 6.6665 10.0003Z" fill="#949494"/>
</svg>
