<svg width="37" height="36" viewBox="0 0 37 36" fill="none" xmlns="http://www.w3.org/2000/svg">
<path d="M23.0591 0.5H14.256C6.70452 0.5 0.574219 6.6303 0.574219 14.1818V21.8182C0.574219 29.3697 6.70452 35.5 14.256 35.5H23.0591C30.6106 35.5 36.7409 29.3697 36.7409 21.8182V14.1818C36.7409 6.6303 30.5894 0.5 23.0591 0.5ZM35.6803 21.8182C35.6803 28.7758 30.0166 34.4394 23.0591 34.4394H14.256C7.29846 34.4394 1.63482 28.7758 1.63482 21.8182V14.1818C1.63482 7.22424 7.29846 1.56061 14.256 1.56061H23.0591C30.0166 1.56061 35.6803 7.22424 35.6803 14.1818V21.8182Z" fill="#AFAFAF"/>
<path d="M18.6465 13.0792C19.0707 13.0792 19.4101 12.7398 19.4101 12.3156V5.10348C19.4101 4.67924 19.0707 4.33984 18.6465 4.33984C18.2222 4.33984 17.8828 4.67924 17.8828 5.10348V12.2944C17.8828 12.7186 18.2222 13.0792 18.6465 13.0792Z" fill="#AFAFAF"/>
<path d="M21.0629 6.6099C20.7872 6.54626 20.4902 6.73717 20.4478 7.03414C20.3841 7.33111 20.575 7.60687 20.872 7.64929C26.4508 8.7099 30.5023 13.6099 30.5023 19.2947C30.5023 25.8281 25.1781 31.1523 18.6447 31.1523C12.1114 31.1523 6.78717 25.8281 6.78717 19.2947C6.78717 13.6099 10.8387 8.7099 16.4175 7.64929C16.7144 7.58565 16.8841 7.3099 16.8417 7.03414C16.7781 6.73717 16.5023 6.56747 16.2266 6.6099C10.1387 7.75535 5.72656 13.1008 5.72656 19.2947C5.72656 26.422 11.5175 32.2129 18.6447 32.2129C25.772 32.2129 31.5629 26.422 31.5629 19.2947C31.5629 13.0796 27.1508 7.75535 21.0629 6.6099Z" fill="#AFAFAF"/>
<path d="M18.6461 20.9485C19.4946 20.9485 20.1946 20.2485 20.1946 19.4C20.1946 18.5516 19.4946 17.8516 18.6461 17.8516C17.7977 17.8516 17.0977 18.5516 17.0977 19.4C17.0977 20.2485 17.7977 20.9485 18.6461 20.9485Z" fill="#AFAFAF"/>
</svg>
