<svg width="55" height="47" viewBox="0 0 55 47" fill="none" xmlns="http://www.w3.org/2000/svg">
						<path d="M41 0.398438L54.7 23.2984L41 46.0984H13.7L0 23.2984L13.7 0.398438H41Z"
							fill="url(#paint0_linear)" />
						<path d="M14.3008 45L1.30078 23.3L14.3008 1.5H40.3008L53.3008 23.3L40.3008 45H14.3008Z"
							fill="url(#paint1_linear)" />
						<path
							d="M39.7016 2.59766H15.0016L2.60156 23.2977L15.0016 43.8977H39.7016L52.0016 23.2977L39.7016 2.59766Z"
							fill="#F3F3F3" />
						<path
							d="M37.8992 35.5984C37.8992 29.9984 33.1992 25.3984 27.2992 25.3984C21.3992 25.3984 16.6992 29.9984 16.6992 35.5984H37.8992Z"
							fill="white" />
						<path
							d="M38.6011 35.3972C37.9011 22.9972 19.0011 21.6972 16.3011 33.5972C15.7011 36.1972 16.3011 35.7972 18.5011 35.7972C20.8011 35.7972 23.1011 35.7972 25.4011 35.7972C29.3011 35.7972 33.3011 35.7972 37.2011 35.7972C37.7011 35.7972 38.1011 35.3972 38.6011 35.3972C33.5011 35.3972 28.3011 35.3972 23.2011 35.3972C22.4011 35.3972 18.0011 35.9972 17.5011 35.3972C16.7011 34.4972 18.4011 30.9972 18.9011 30.1972C20.3011 27.9972 22.3011 26.5972 24.7011 25.6972C24.4011 25.7972 24.1011 25.8972 23.8011 25.9972C30.5011 24.1972 36.8011 29.0972 37.2011 35.7972C37.2011 35.6972 38.6011 35.4972 38.6011 35.3972Z"
							fill="#B4B4B4" />
						<path
							d="M27.3016 26.8C31.8303 26.8 35.5016 23.2631 35.5016 18.9C35.5016 14.537 31.8303 11 27.3016 11C22.7728 11 19.1016 14.537 19.1016 18.9C19.1016 23.2631 22.7728 26.8 27.3016 26.8Z"
							fill="white" />
						<path
							d="M34.8023 19.0991C34.6023 22.6991 32.5023 25.3991 29.2023 26.5991C29.5023 26.4991 29.8023 26.3991 30.1023 26.2991C25.9023 27.3991 21.3023 24.8991 20.1023 20.6991C18.9023 16.3991 21.5023 12.4991 25.4023 11.0991C25.1023 11.1991 24.8023 11.2991 24.5023 11.3991C29.7023 9.99907 34.5023 13.8991 34.8023 19.0991C34.8023 18.9991 36.3023 18.7991 36.3023 18.6991C35.7023 7.89907 18.4023 8.59907 18.4023 19.0991C18.4023 30.0991 35.7023 28.9991 36.3023 18.6991C36.3023 18.8991 34.8023 18.8991 34.8023 19.0991Z"
							fill="#B4B4B4" />
						<defs>
							<linearGradient id="paint0_linear" x1="54.6558" y1="23.254" x2="0" y2="23.254"
								gradientUnits="userSpaceOnUse">
								<stop stop-color="#6FB5E4" />
								<stop offset="0.1148" stop-color="#66AEE0" />
								<stop offset="0.3055" stop-color="#4D9BD4" />
								<stop offset="0.5475" stop-color="#157FC3" />
								<stop offset="0.5674" stop-color="#097DC2" />
								<stop offset="1" stop-color="#075BA8" />
							</linearGradient>
							<linearGradient id="paint1_linear" x1="1.32388" y1="23.2557" x2="53.3335" y2="23.2557"
								gradientUnits="userSpaceOnUse">
								<stop stop-color="#6FB5E4" />
								<stop offset="0.1148" stop-color="#66AEE0" />
								<stop offset="0.3055" stop-color="#4D9BD4" />
								<stop offset="0.5475" stop-color="#157FC3" />
								<stop offset="0.5674" stop-color="#097DC2" />
								<stop offset="1" stop-color="#075BA8" />
							</linearGradient>
						</defs>
					</svg>