<svg width="54" height="46" viewBox="0 0 54 46" fill="none" xmlns="http://www.w3.org/2000/svg">
<path d="M40 0.5L53.3 22.8L40 45.1H13.3L0 22.8L13.3 0.5H40Z" fill="url(#paint0_linear)"/>
<path d="M14.0008 44.0016L1.30078 22.8016L14.0008 1.60156H39.3008L52.0008 22.8016L39.3008 44.0016H14.0008Z" fill="url(#paint1_linear)"/>
<path d="M38.7016 2.60156H14.6016L2.60156 22.8016L14.6016 42.9016H38.7016L50.7016 22.8016L38.7016 2.60156Z" fill="#F3F3F3"/>
<path d="M13.3984 32.4984C13.3984 32.8984 13.5984 33.2984 13.8984 33.5984C14.1984 33.8984 14.5984 34.0984 15.0984 34.0984H15.2984H16.1984H38.2984C38.6984 34.0984 39.1984 33.8984 39.4984 33.5984C39.7984 33.2984 39.9984 32.8984 39.9984 32.4984V19.3984H13.3984V32.4984Z" fill="white"/>
<path d="M12.6992 32.6992C13.6992 34.9992 17.0992 34.2992 19.2992 34.2992C23.5992 34.2992 27.8992 34.2992 32.0992 34.2992C35.2992 34.2992 40.1992 35.2992 40.6992 31.1992C40.8992 29.2992 40.6992 27.1992 40.6992 25.1992C40.6992 23.9992 41.2992 20.6992 40.6992 19.6992C39.9992 18.4992 36.9992 19.0992 35.3992 19.0992C28.2992 19.0992 21.2992 19.0992 14.1992 19.0992C14.0992 19.0992 12.6992 19.3992 12.6992 19.4992C12.6992 23.8992 12.6992 28.2992 12.6992 32.6992C12.6992 32.5992 14.1992 32.3992 14.1992 32.2992C14.1992 27.8992 14.1992 23.4992 14.1992 19.1992C13.6992 19.2992 13.1992 19.4992 12.6992 19.5992C20.3992 19.5992 28.0992 19.5992 35.7992 19.5992C39.1992 19.5992 39.1992 18.9992 39.1992 22.3992C39.1992 25.2992 40.6992 32.9992 37.5992 34.2992C38.0992 34.1992 38.5992 33.9992 39.0992 33.8992C34.5992 33.8992 30.0992 33.8992 25.5992 33.8992C22.9992 33.8992 15.4992 35.1992 14.1992 32.2992C14.0992 32.1992 12.6992 32.6992 12.6992 32.6992Z" fill="#B4B4B4"/>
<path d="M20.7992 15.2007C20.7992 14.2007 20.7992 13.2007 20.7992 12.1007C20.7992 11.9007 20.8992 11.3007 20.7992 11.2007C20.6992 11.1007 20.0992 11.2007 19.9992 11.2007C19.7992 11.2007 19.4992 11.2007 19.2992 11.2007C19.1992 11.2007 17.7992 11.5007 17.7992 11.6007C17.7992 12.6007 17.7992 13.6007 17.7992 14.7007C17.7992 14.9007 17.6992 15.5007 17.7992 15.6007C17.8992 15.7007 18.4992 15.6007 18.5992 15.6007C18.7992 15.6007 19.0992 15.6007 19.2992 15.6007C19.7992 15.6007 20.2992 15.2007 20.7992 15.2007C20.4992 15.2007 19.5992 15.4007 19.2992 15.2007C19.0992 15.1007 19.1992 14.6007 19.1992 14.3007C19.1992 13.3007 19.1992 12.3007 19.1992 11.2007C18.6992 11.3007 18.1992 11.5007 17.6992 11.6007C17.9992 11.6007 18.8992 11.4007 19.1992 11.6007C19.3992 11.7007 19.2992 12.2007 19.2992 12.5007C19.2992 13.5007 19.2992 14.5007 19.2992 15.6007C19.2992 15.5007 20.7992 15.3007 20.7992 15.2007Z" fill="#B4B4B4"/>
<path d="M35.4984 15.2007C35.4984 14.2007 35.4984 13.2007 35.4984 12.1007C35.4984 11.9007 35.5984 11.3007 35.4984 11.2007C35.3984 11.1007 34.7984 11.2007 34.6984 11.2007C34.4984 11.2007 34.1984 11.2007 33.9984 11.2007C33.8984 11.2007 32.4984 11.5007 32.4984 11.6007C32.4984 12.6007 32.4984 13.6007 32.4984 14.7007C32.4984 14.9007 32.3984 15.5007 32.4984 15.6007C32.5984 15.7007 33.1984 15.6007 33.2984 15.6007C33.4984 15.6007 33.7984 15.6007 33.9984 15.6007C34.4984 15.6007 34.9984 15.2007 35.4984 15.2007C35.1984 15.2007 34.2984 15.4007 33.9984 15.2007C33.7984 15.1007 33.8984 14.6007 33.8984 14.3007C33.8984 13.3007 33.8984 12.3007 33.8984 11.2007C33.3984 11.3007 32.8984 11.5007 32.3984 11.6007C32.6984 11.6007 33.5984 11.4007 33.8984 11.6007C34.0984 11.7007 33.9984 12.2007 33.9984 12.5007C33.9984 13.5007 33.9984 14.5007 33.9984 15.6007C33.9984 15.5007 35.4984 15.3007 35.4984 15.2007Z" fill="#B4B4B4"/>
<path d="M39.4008 13.8008C39.1008 13.5008 38.7008 13.3008 38.2008 13.3008H35.4008V15.4008C35.4008 15.6008 35.3008 15.8008 35.2008 15.9008C35.1008 16.0008 34.9008 16.1008 34.7008 16.1008H33.2008C33.1008 16.1008 33.1008 16.1008 33.0008 16.1008C32.8008 16.1008 32.7008 16.0008 32.6008 15.8008C32.5008 15.7008 32.5008 15.6008 32.5008 15.5008V13.4008H20.8008V15.5008C20.8008 15.9008 20.5008 16.2008 20.1008 16.2008H18.6008C18.5008 16.2008 18.5008 16.2008 18.4008 16.2008H18.3008H18.2008C18.0008 16.1008 17.9008 15.9008 17.9008 15.6008V13.5008H16.2008H15.3008H15.0008C14.6008 13.5008 14.1008 13.7008 13.8008 14.0008C13.5008 14.3008 13.3008 14.7008 13.3008 15.1008V16.7008V17.0008V18.1008V18.4008V19.1008H39.8008V18.4008V18.1008V17.0008V16.7008V15.1008C39.9008 14.5008 39.7008 14.1008 39.4008 13.8008Z" fill="white"/>
<path d="M39.5 13.6013C38.3 12.8013 36.8 13.1013 35.4 13.1013C35.3 13.1013 35.1 13.2013 35.1 13.4013C35.1 14.6013 35.3 16.4013 33.4 16.0013C32.2 15.7013 32.6 14.6013 32.6 13.4013C32.6 13.3013 32.5 13.1013 32.3 13.1013C28.4 13.1013 24.5 13.1013 20.6 13.1013C20.5 13.1013 20.3 13.2013 20.3 13.4013C20.3 14.6013 20.3 16.7013 18.5 16.0013C17.6 15.6013 17.9 14.4013 17.9 13.4013C17.9 13.3013 17.8 13.1013 17.6 13.1013C16.2 13.1013 13.8 12.6013 13.1 14.2013C12.5 15.4013 13 17.5013 13 18.8013C13 18.9013 13.1 19.1013 13.3 19.1013C22.1 19.1013 31 19.1013 39.8 19.1013C39.9 19.1013 40.1 19.0013 40.1 18.8013C40.1 17.2013 40.6 15.0013 39.5 13.6013C39.4 13.4013 39 13.7013 39.2 13.9013C40 15.1013 39.5 16.6013 39.6 17.9013C39.7 18.7013 40 18.6013 39 18.5013C36.3 18.4013 33.5 18.5013 30.7 18.5013C26.9 18.5013 23.2 18.5013 19.4 18.5013C18.1 18.5013 16.7 18.5013 15.4 18.5013C15 18.5013 13.6 18.7013 13.3 18.5013C13.6 18.7013 13.5 16.9013 13.5 16.6013C13.5 16.1013 13.4 15.5013 13.5 15.0013C14 13.2013 15.2 13.5013 16.4 13.5013C16.6 13.5013 17.2 13.4013 17.4 13.5013C17.9 13.8013 17 12.8013 17.4 13.7013C17.6 14.2013 17.2 14.9013 17.4 15.5013C17.7 16.3013 17.9 16.3013 18.5 16.4013C19.5 16.6013 20.5 16.5013 20.8 15.5013C20.9 15.2013 20.8 14.4013 20.8 14.2013C20.7 13.3013 20.4 13.7013 21.2 13.6013C24.4 13.3013 27.8 13.6013 31 13.6013C31.2 13.6013 32 13.5013 32.2 13.6013C31.9 13.4013 31.8 15.0013 32 15.4013C32.3 16.2013 32.6 16.3013 33.5 16.4013C34.8 16.5013 35.3 16.2013 35.5 15.0013C35.5 14.7013 35.5 14.4013 35.5 14.1013C35.5 13.2013 35.3 13.7013 35.6 13.5013C36.3 13.1013 38.5 13.5013 39.1 13.9013C39.5 14.2013 39.8 13.7013 39.5 13.6013Z" fill="#B4B4B4"/>
<path d="M19.6984 29.6008H19.5984L19.4984 29.7008C19.4984 29.8008 19.3984 29.8008 19.3984 29.9008C19.3984 30.0008 19.3984 30.1008 19.3984 30.3008C19.3984 30.4008 19.3984 30.6008 19.3984 30.7008C19.3984 30.8008 19.3984 30.9008 19.4984 30.9008C19.4984 31.0008 19.5984 31.0008 19.5984 31.0008H19.6984H25.2984H25.3984L25.4984 30.9008C25.4984 30.8008 25.5984 30.8008 25.5984 30.7008C25.5984 30.6008 25.5984 30.5008 25.5984 30.3008C25.5984 30.2008 25.5984 30.0008 25.5984 29.9008C25.5984 29.8008 25.5984 29.7008 25.4984 29.7008C25.4984 29.6008 25.3984 29.6008 25.3984 29.6008H25.2984H23.5984V21.5008V21.4008L23.4984 21.3008C23.3984 21.3008 23.2984 21.3008 23.1984 21.3008C23.0984 21.3008 22.8984 21.3008 22.6984 21.3008C22.4984 21.3008 22.3984 21.3008 22.2984 21.3008C22.1984 21.3008 22.0984 21.3008 22.0984 21.3008C21.9984 21.3008 21.9984 21.3008 21.8984 21.3008H21.7984L19.5984 22.7008C19.4984 22.7008 19.4984 22.8008 19.4984 22.8008L19.3984 22.9008C19.3984 23.0008 19.3984 23.0008 19.3984 23.1008C19.3984 23.2008 19.3984 23.3008 19.3984 23.4008C19.3984 23.6008 19.3984 23.7008 19.3984 23.8008C19.3984 23.9008 19.3984 24.0008 19.4984 24.0008C19.4984 24.0008 19.5984 24.1008 19.6984 24.0008C19.7984 24.0008 19.8984 24.0008 19.9984 23.9008L21.5984 23.0008V29.4008H19.6984V29.6008Z" fill="#B4B4B4"/>
<path d="M31.1008 29.4008C30.9008 29.5008 30.7008 29.6008 30.5008 29.7008C30.3008 29.8008 30.0008 29.8008 29.7008 29.8008C29.3008 29.8008 29.0008 29.8008 28.8008 29.7008C28.5008 29.6008 28.3008 29.6008 28.2008 29.5008C28.0008 29.4008 27.9008 29.4008 27.8008 29.3008C27.7008 29.2008 27.6008 29.2008 27.6008 29.2008H27.5008L27.4008 29.3008C27.4008 29.4008 27.4008 29.4008 27.3008 29.5008C27.3008 29.6008 27.3008 29.7008 27.3008 29.9008C27.3008 30.0008 27.3008 30.1008 27.3008 30.2008C27.3008 30.3008 27.3008 30.4008 27.3008 30.4008C27.3008 30.5008 27.3008 30.5008 27.4008 30.6008L27.5008 30.7008C27.5008 30.7008 27.6008 30.8008 27.8008 30.8008C27.9008 30.9008 28.1008 30.9008 28.4008 31.0008C28.6008 31.1008 28.9008 31.1008 29.2008 31.1008C29.5008 31.1008 29.8008 31.2008 30.1008 31.2008C30.7008 31.2008 31.2008 31.1008 31.7008 31.0008C32.2008 30.8008 32.6008 30.6008 33.0008 30.3008C33.3008 30.0008 33.6008 29.7008 33.8008 29.2008C34.0008 28.8008 34.1008 28.3008 34.1008 27.8008C34.1008 27.3008 34.0008 26.9008 33.9008 26.6008C33.7008 26.2008 33.5008 25.9008 33.2008 25.7008C32.9008 25.5008 32.5008 25.3008 32.1008 25.2008C31.7008 25.1008 31.2008 25.0008 30.6008 25.0008C30.4008 25.0008 30.2008 25.0008 30.0008 25.0008C29.8008 25.0008 29.6008 25.0008 29.5008 25.0008V23.0008H33.1008C33.2008 23.0008 33.3008 22.9008 33.3008 22.8008C33.4008 22.7008 33.4008 22.4008 33.4008 22.1008C33.4008 21.9008 33.4008 21.8008 33.4008 21.7008C33.4008 21.6008 33.4008 21.5008 33.3008 21.4008C33.3008 21.3008 33.2008 21.3008 33.2008 21.3008H33.1008H28.3008C28.1008 21.3008 28.0008 21.3008 27.9008 21.4008C27.8008 21.5008 27.8008 21.6008 27.8008 21.8008V26.1008C27.8008 26.3008 27.8008 26.4008 27.9008 26.5008C28.0008 26.6008 28.1008 26.6008 28.2008 26.6008C28.4008 26.6008 28.7008 26.6008 28.9008 26.6008C29.1008 26.6008 29.4008 26.6008 29.7008 26.6008C30.1008 26.6008 30.4008 26.6008 30.7008 26.7008C31.0008 26.8008 31.2008 26.9008 31.4008 27.0008C31.6008 27.1008 31.7008 27.3008 31.8008 27.5008C31.9008 27.7008 31.9008 27.9008 31.9008 28.2008C31.9008 28.5008 31.9008 28.7008 31.8008 28.9008C31.4008 29.1008 31.3008 29.2008 31.1008 29.4008Z" fill="#B4B4B4"/>
<defs>
<linearGradient id="paint0_linear" x1="53.273" y1="22.7858" x2="0" y2="22.7858" gradientUnits="userSpaceOnUse">
<stop stop-color="#6FB5E4"/>
<stop offset="0.1148" stop-color="#66AEE0"/>
<stop offset="0.3055" stop-color="#4D9BD4"/>
<stop offset="0.5475" stop-color="#157FC3"/>
<stop offset="0.5674" stop-color="#097DC2"/>
<stop offset="1" stop-color="#075BA8"/>
</linearGradient>
<linearGradient id="paint1_linear" x1="1.29038" y1="22.7876" x2="51.9841" y2="22.7876" gradientUnits="userSpaceOnUse">
<stop stop-color="#6FB5E4"/>
<stop offset="0.1148" stop-color="#66AEE0"/>
<stop offset="0.3055" stop-color="#4D9BD4"/>
<stop offset="0.5475" stop-color="#157FC3"/>
<stop offset="0.5674" stop-color="#097DC2"/>
<stop offset="1" stop-color="#075BA8"/>
</linearGradient>
</defs>
</svg>
