<svg width="20" height="20" viewBox="0 0 20 20" fill="none" xmlns="http://www.w3.org/2000/svg">
<path fill-rule="evenodd" clip-rule="evenodd" d="M15.0002 12.5V14.1667H16.6668V15.8333H13.3335V12.5H15.0002Z" fill="#949494"/>
<path fill-rule="evenodd" clip-rule="evenodd" d="M14.1665 11.6667C12.3256 11.6667 10.8332 13.1591 10.8332 15C10.8332 16.8409 12.3256 18.3333 14.1665 18.3333C16.0075 18.3333 17.4998 16.8409 17.4998 15C17.4998 13.1591 16.0075 11.6667 14.1665 11.6667ZM9.1665 15C9.1665 12.2386 11.4051 10 14.1665 10C16.9279 10 19.1665 12.2386 19.1665 15C19.1665 17.7614 16.9279 20 14.1665 20C11.4051 20 9.1665 17.7614 9.1665 15Z" fill="#949494"/>
<path fill-rule="evenodd" clip-rule="evenodd" d="M0 2.5H20V10H18.3333V4.16667H1.66667V17.5H8.33333V19.1667H0V2.5Z" fill="#949494"/>
<path fill-rule="evenodd" clip-rule="evenodd" d="M6.66667 0V4.16667H5V0H6.66667Z" fill="#949494"/>
<path fill-rule="evenodd" clip-rule="evenodd" d="M15.0002 0V4.16667H13.3335V0H15.0002Z" fill="#949494"/>
<path fill-rule="evenodd" clip-rule="evenodd" d="M19.1668 7.49967H0.833496V5.83301H19.1668V7.49967Z" fill="#949494"/>
</svg>
