<svg width="55" height="47" viewBox="0 0 55 47" fill="none" xmlns="http://www.w3.org/2000/svg">
<path d="M41.3008 0.800781L55.0008 23.6008L41.3008 46.5008H14.0008L0.300781 23.6008L14.0008 0.800781H41.3008Z" fill="url(#paint0_linear)"/>
<path d="M14.6016 45.4023L1.60156 23.6023L14.6016 1.90234H40.6016L53.6016 23.6023L40.6016 45.4023H14.6016Z" fill="url(#paint1_linear)"/>
<path d="M40 3H15.3L3 23.6L15.3 44.3H40L52.3 23.6L40 3Z" fill="#F3F3F3"/>
<path d="M27.6016 37.2C35.3335 37.2 41.6016 31.1111 41.6016 23.6C41.6016 16.0889 35.3335 10 27.6016 10C19.8696 10 13.6016 16.0889 13.6016 23.6C13.6016 31.1111 19.8696 37.2 27.6016 37.2Z" fill="white"/>
<path d="M40.9023 23.8013C40.5023 31.7013 34.0023 38.3013 25.7023 36.7013C19.3023 35.5013 14.3023 29.9013 14.3023 23.4013C14.3023 16.0013 20.7023 9.60133 28.2023 10.3013C35.4023 11.0013 40.6023 16.8013 40.9023 23.8013C40.9023 23.7013 42.4023 23.5013 42.4023 23.4013C41.5023 5.40133 12.9023 5.90133 12.9023 23.8013C12.9023 42.1013 41.6023 41.0013 42.4023 23.4013C42.4023 23.6013 40.9023 23.7013 40.9023 23.8013Z" fill="#B4B4B4"/>
<path d="M27.6016 34.2984C33.6767 34.2984 38.6016 29.5079 38.6016 23.5984C38.6016 17.689 33.6767 12.8984 27.6016 12.8984C21.5264 12.8984 16.6016 17.689 16.6016 23.5984C16.6016 29.5079 21.5264 34.2984 27.6016 34.2984Z" fill="white"/>
<path d="M37.9023 23.7996C37.6023 28.5996 34.9023 32.1996 30.4023 33.8996C30.7023 33.7996 31.0023 33.6996 31.3023 33.5996C18.0023 37.1996 12.0023 18.1996 24.9023 13.2996C24.6023 13.3996 24.3023 13.4996 24.0023 13.5996C31.0023 11.6996 37.5023 16.6996 37.9023 23.7996C37.9023 23.6996 39.4023 23.4996 39.4023 23.3996C38.6023 9.19956 15.9023 9.69956 15.9023 23.7996C15.9023 38.2996 38.6023 37.1996 39.4023 23.3996C39.4023 23.5996 37.9023 23.6996 37.9023 23.7996Z" fill="#B4B4B4"/>
<path d="M27.6016 16.8984V23.5984H33.0016" stroke="#B4B4B4" stroke-width="0.5085" stroke-miterlimit="10"/>
<path d="M26.4023 17.2L27.6023 15L28.9023 17.2H26.4023Z" fill="#B4B4B4"/>
<path d="M32.7031 24.3984L34.1031 23.5984L32.7031 22.8984V24.3984Z" fill="#B4B4B4"/>
<defs>
<linearGradient id="paint0_linear" x1="54.9676" y1="23.6341" x2="0.311382" y2="23.6341" gradientUnits="userSpaceOnUse">
<stop stop-color="#6FB5E4"/>
<stop offset="0.1148" stop-color="#66AEE0"/>
<stop offset="0.3055" stop-color="#4D9BD4"/>
<stop offset="0.5475" stop-color="#157FC3"/>
<stop offset="0.5674" stop-color="#097DC2"/>
<stop offset="1" stop-color="#075BA8"/>
</linearGradient>
<linearGradient id="paint1_linear" x1="1.63566" y1="23.6358" x2="53.6454" y2="23.6358" gradientUnits="userSpaceOnUse">
<stop stop-color="#6FB5E4"/>
<stop offset="0.1148" stop-color="#66AEE0"/>
<stop offset="0.3055" stop-color="#4D9BD4"/>
<stop offset="0.5475" stop-color="#157FC3"/>
<stop offset="0.5674" stop-color="#097DC2"/>
<stop offset="1" stop-color="#075BA8"/>
</linearGradient>
</defs>
</svg>
