<svg width="20" height="20" viewBox="0 0 20 20" fill="none" xmlns="http://www.w3.org/2000/svg">
<g clip-path="url(#clip0)">
<path fill-rule="evenodd" clip-rule="evenodd" d="M5.83298 15H19.9996V17.0833C19.9996 18.6944 18.6941 20 17.083 20H4.58312C4.58303 20 4.58298 20 4.58298 19.1667L4.58312 20L4.50053 18.3469C4.49952 18.3375 4.49944 18.3375 4.49936 18.3375L4.49753 18.3377L4.49571 18.3379L4.49415 18.3381C4.49401 18.3381 4.49606 18.338 4.49936 18.3375C4.50598 18.3367 4.5187 18.3348 4.53741 18.3317C4.57505 18.3256 4.63381 18.3145 4.70639 18.2964C4.85494 18.2592 5.04321 18.1969 5.22305 18.0979C5.5611 17.912 5.83298 17.6322 5.83298 17.0833V15ZM7.22576 18.3333H17.083C17.7736 18.3333 18.333 17.7739 18.333 17.0833V16.6667H7.49965V17.0833C7.49965 17.5741 7.39423 17.9875 7.22576 18.3333Z" fill="#949494"/>
<path fill-rule="evenodd" clip-rule="evenodd" d="M1.6665 0H17.4998V14.1667H15.8332V1.66667H3.33317V17.0833C3.33317 17.7739 3.89257 18.3333 4.58317 18.3333H6.6665V20H4.58317C2.9721 20 1.6665 18.6944 1.6665 17.0833V0Z" fill="#949494"/>
<path fill-rule="evenodd" clip-rule="evenodd" d="M5.83301 4.16699H13.333V5.83366H5.83301V4.16699Z" fill="#949494"/>
<path fill-rule="evenodd" clip-rule="evenodd" d="M5.83301 7.5H13.333V9.16667H5.83301V7.5Z" fill="#949494"/>
<path fill-rule="evenodd" clip-rule="evenodd" d="M5.83301 10.833H13.333V12.4997H5.83301V10.833Z" fill="#949494"/>
</g>
<defs>
<clipPath id="clip0">
<rect width="20" height="20" fill="white"/>
</clipPath>
</defs>
</svg>
