<svg width="20" height="20" viewBox="0 0 14 18" fill="none" xmlns="http://www.w3.org/2000/svg">
<path fill-rule="evenodd" clip-rule="evenodd" d="M4.42419 4.90942C4.42419 3.48715 5.57769 2.33366 6.99995 2.33366C8.42221 2.33366 9.57571 3.48715 9.57571 4.90942C9.57571 5.6434 9.27013 6.48872 8.75447 7.14685C8.23631 7.80816 7.60243 8.16699 6.99995 8.16699C6.39747 8.16699 5.76359 7.80816 5.24543 7.14685C4.72978 6.48872 4.42419 5.6434 4.42419 4.90942ZM6.99995 0.666992C4.65721 0.666992 2.75753 2.56668 2.75753 4.90942C2.75753 6.05794 3.21524 7.25806 3.93351 8.17477C4.64927 9.08828 5.71993 9.83366 6.99995 9.83366C8.27997 9.83366 9.35064 9.08828 10.0664 8.17477C10.7847 7.25806 11.2424 6.05794 11.2424 4.90942C11.2424 2.56668 9.34269 0.666992 6.99995 0.666992ZM4.95452 10.2125C2.23473 10.2125 0.0302734 12.4169 0.0302734 15.1367V16.4268L0.609627 16.6122L0.863582 15.8186C0.609627 16.6122 0.610343 16.6124 0.610571 16.6125L0.611711 16.6129L0.61458 16.6138L0.622669 16.6163L0.64823 16.6241C0.669433 16.6305 0.69895 16.6392 0.736718 16.6498C0.812255 16.6712 0.920797 16.7003 1.06184 16.7347C1.34393 16.8034 1.75601 16.8929 2.29403 16.9816C3.3702 17.1592 4.94967 17.3337 6.99997 17.3337C9.05027 17.3337 10.6297 17.1592 11.7059 16.9816C12.2439 16.8929 12.656 16.8034 12.9381 16.7347C13.0791 16.7003 13.1877 16.6712 13.2632 16.6498C13.301 16.6392 13.3305 16.6305 13.3517 16.6241L13.3773 16.6163L13.3854 16.6138L13.3882 16.6129L13.3903 16.6122L13.9697 16.4268V15.1367C13.9697 12.4169 11.7652 10.2125 9.04543 10.2125H4.95452ZM13.1363 15.8185C13.3903 16.6122 13.3905 16.6121 13.3903 16.6122L13.1363 15.8185ZM2.56528 15.3372C2.21212 15.279 1.9222 15.2211 1.69694 15.1712V15.1367C1.69694 13.3374 3.15521 11.8791 4.95452 11.8791H9.04543C10.8447 11.8791 12.303 13.3374 12.303 15.1367V15.1712C12.0777 15.2211 11.7878 15.279 11.4347 15.3372C10.4441 15.5006 8.95535 15.667 6.99997 15.667C5.04459 15.667 3.55588 15.5006 2.56528 15.3372Z" fill="#949494"/>
</svg>
