<svg width="54" height="46" viewBox="0 0 54 46" fill="none" xmlns="http://www.w3.org/2000/svg">
<path d="M40 0.898438L53.3 23.1984L40 45.4984H13.3L0 23.1984L13.3 0.898438H40Z" fill="url(#paint0_linear)"/>
<path d="M14.0008 44.4L1.30078 23.2L14.0008 2H39.3008L52.0008 23.2L39.3008 44.4H14.0008Z" fill="url(#paint1_linear)"/>
<path d="M38.7016 3H14.6016L2.60156 23.2L14.6016 43.3H38.7016L50.7016 23.2L38.7016 3Z" fill="#F3F3F3"/>
<path d="M26.6023 36.4C34.1686 36.4 40.3023 30.4902 40.3023 23.2C40.3023 15.9098 34.1686 10 26.6023 10C19.036 10 12.9023 15.9098 12.9023 23.2C12.9023 30.4902 19.036 36.4 26.6023 36.4Z" fill="white"/>
<path d="M39.601 23.4019C39.301 29.5019 35.701 34.0019 30.001 36.0019C30.501 35.9019 30.901 35.8019 31.401 35.6019C14.501 39.8019 6.70105 16.2019 23.401 10.3019C22.901 10.4019 22.501 10.5019 22.001 10.7019C30.701 8.5019 39.101 14.2019 39.601 23.4019C39.601 23.3019 41.101 23.1019 41.101 23.0019C40.201 5.4019 12.301 6.00189 12.301 23.4019C12.201 41.3019 40.201 40.2019 41.101 23.0019C41.001 23.1019 39.601 23.2019 39.601 23.4019Z" fill="#B4B4B4"/>
<path d="M26.6023 33.6008C32.5118 33.6008 37.3023 28.9445 37.3023 23.2008C37.3023 17.457 32.5118 12.8008 26.6023 12.8008C20.6929 12.8008 15.9023 17.457 15.9023 23.2008C15.9023 28.9445 20.6929 33.6008 26.6023 33.6008Z" fill="white"/>
<path d="M36.6016 23.401C36.3016 28.101 33.6016 31.6011 29.3016 33.3011C29.6016 33.2011 29.9016 33.1011 30.2016 33.0011C17.2016 36.5011 11.4016 17.9011 24.0016 13.1011C23.7016 13.2011 23.4016 13.301 23.1016 13.401C29.9016 11.601 36.3016 16.501 36.6016 23.401C36.6016 23.301 38.1016 23.1011 38.1016 23.0011C37.3016 9.10106 15.1016 9.70105 15.1016 23.401C15.1016 37.601 37.3016 36.5011 38.1016 23.0011C38.1016 23.1011 36.7016 23.201 36.6016 23.401Z" fill="#B4B4B4"/>
<path d="M26.6016 16.6016V23.2016H31.8016" stroke="#B4B4B4" stroke-width="0.5085" stroke-miterlimit="10"/>
<path d="M25.4023 17.0008L26.6023 14.8008L27.9023 17.0008H25.4023Z" fill="#B4B4B4"/>
<path d="M31.6016 23.9023L32.9016 23.2023L31.6016 22.4023V23.9023Z" fill="#B4B4B4"/>
<path d="M38.8984 29.9984H33.5984V24.8984H28.2984V29.9984H22.8984V35.1984H28.2984V40.2984H33.5984V35.1984H38.8984V29.9984Z" fill="white"/>
<path d="M38.8992 29.1976C37.0992 29.1976 35.3992 29.1976 33.5992 29.1976C33.8992 29.4976 34.0992 29.6976 34.3992 29.9977C34.3992 28.2977 34.3992 26.5976 34.3992 24.8976C34.3992 24.4976 34.0992 24.0977 33.5992 24.0977C31.7992 24.0977 30.0992 24.0977 28.2992 24.0977C27.8992 24.0977 27.4992 24.3976 27.4992 24.8976C27.4992 26.5976 27.4992 28.2977 27.4992 29.9977C27.7992 29.6976 27.9992 29.4976 28.2992 29.1976C26.4992 29.1976 24.7992 29.1976 22.9992 29.1976C22.5992 29.1976 22.1992 29.4977 22.1992 29.9977C22.1992 31.6976 22.1992 33.3977 22.1992 35.0977C22.1992 35.4977 22.4992 35.8976 22.9992 35.8976C24.7992 35.8976 26.4992 35.8976 28.2992 35.8976C27.9992 35.5976 27.7992 35.3977 27.4992 35.0977C27.4992 36.7977 27.4992 38.4976 27.4992 40.1976C27.4992 40.5976 27.7992 40.9977 28.2992 40.9977C30.0992 40.9977 31.7992 40.9977 33.5992 40.9977C33.9992 40.9977 34.3992 40.6976 34.3992 40.1976C34.3992 38.4976 34.3992 36.7977 34.3992 35.0977C34.0992 35.3977 33.8992 35.5976 33.5992 35.8976C35.3992 35.8976 37.0992 35.8976 38.8992 35.8976C39.2992 35.8976 39.6992 35.5977 39.6992 35.0977C39.6992 33.3977 39.6992 31.6976 39.6992 29.9977C39.6992 28.9977 38.1992 28.9977 38.1992 29.9977C38.1992 31.6976 38.1992 33.3977 38.1992 35.0977C38.4992 34.7977 38.6992 34.5977 38.9992 34.2977C37.1992 34.2977 35.4992 34.2977 33.6992 34.2977C33.2992 34.2977 32.8992 34.5977 32.8992 35.0977C32.8992 36.7977 32.8992 38.4976 32.8992 40.1976C33.1992 39.8976 33.3992 39.6976 33.6992 39.3976C31.8992 39.3976 30.1992 39.3976 28.3992 39.3976C28.6992 39.6976 28.8992 39.8976 29.1992 40.1976C29.1992 38.4976 29.1992 36.7977 29.1992 35.0977C29.1992 34.6977 28.8992 34.2977 28.3992 34.2977C26.5992 34.2977 24.8992 34.2977 23.0992 34.2977C23.3992 34.5977 23.5992 34.7977 23.8992 35.0977C23.8992 33.3977 23.8992 31.6976 23.8992 29.9977C23.5992 30.2977 23.3992 30.4977 23.0992 30.7977C24.8992 30.7977 26.5992 30.7977 28.3992 30.7977C28.7992 30.7977 29.1992 30.4977 29.1992 29.9977C29.1992 28.2977 29.1992 26.5976 29.1992 24.8976C28.8992 25.1976 28.6992 25.3976 28.3992 25.6976C30.1992 25.6976 31.8992 25.6976 33.6992 25.6976C33.3992 25.3976 33.1992 25.1976 32.8992 24.8976C32.8992 26.5976 32.8992 28.2977 32.8992 29.9977C32.8992 30.3977 33.1992 30.7977 33.6992 30.7977C35.4992 30.7977 37.1992 30.7977 38.9992 30.7977C39.8992 30.7977 39.8992 29.1976 38.8992 29.1976Z" fill="#B4B4B4"/>
<defs>
<linearGradient id="paint0_linear" x1="53.273" y1="23.1863" x2="0" y2="23.1863" gradientUnits="userSpaceOnUse">
<stop stop-color="#6FB5E4"/>
<stop offset="0.1148" stop-color="#66AEE0"/>
<stop offset="0.3055" stop-color="#4D9BD4"/>
<stop offset="0.5475" stop-color="#157FC3"/>
<stop offset="0.5674" stop-color="#097DC2"/>
<stop offset="1" stop-color="#075BA8"/>
</linearGradient>
<linearGradient id="paint1_linear" x1="1.29038" y1="23.188" x2="51.9841" y2="23.188" gradientUnits="userSpaceOnUse">
<stop stop-color="#6FB5E4"/>
<stop offset="0.1148" stop-color="#66AEE0"/>
<stop offset="0.3055" stop-color="#4D9BD4"/>
<stop offset="0.5475" stop-color="#157FC3"/>
<stop offset="0.5674" stop-color="#097DC2"/>
<stop offset="1" stop-color="#075BA8"/>
</linearGradient>
</defs>
</svg>
